<mxfile host="app.diagrams.net" modified="2024-04-04T04:21:24.913Z" agent="Mozilla/5.0 (X11; Linux x86_64) AppleWebKit/537.36 (KHTML, like Gecko) Chrome/123.0.0.0 Safari/537.36" version="24.2.2" etag="Nk3oKxG82xP5B8ZBmOKU" type="github">
  <diagram name="Page-1" id="VmlCX_8EugwcR6bD1lSj">
    <mxGraphModel>
      <root>
        <mxCell id="0" />
        <mxCell id="1" parent="0" />
      </root>
    </mxGraphModel>
  </diagram>
</mxfile>
